PERFORMER "Samination"
TITLE "Mix 12 - Bright & Chemical"
FILE "samination_mix12-bright_and_chemical.mp3" MP3
  TRACK 01 AUDIO
    TITLE "Don't Stop"
    PERFORMER "Betwixt & Between"
    INDEX 01 00:00:00
  TRACK 02 AUDIO
    TITLE "Flyin' so High"
    PERFORMER "Shadow K"
    INDEX 01 06:54:55
  TRACK 03 AUDIO
    TITLE "Half a World Away"
    PERFORMER "Reese"
    INDEX 01 12:30:30
  TRACK 04 AUDIO
    TITLE "Round & Round (Breeze & Styles remix)"
    PERFORMER "Billy Daniel Bunter & Jon Doe"
    INDEX 01 16:35:70
  TRACK 05 AUDIO
    TITLE "Lucky Star (Akuma Goof remix)"
    PERFORMER "Prima Donna"
    INDEX 01 20:16:40
  TRACK 06 AUDIO
    TITLE "All I Need (Original mix)"
    PERFORMER "VISA"
    INDEX 01 25:38:40
  TRACK 07 AUDIO
    TITLE "Bright future"
    PERFORMER "DJ Chucky & DJ Angel"
    INDEX 01 29:30:25
  TRACK 08 AUDIO
    TITLE "To the Moon"
    PERFORMER "Silk Cuts"
    INDEX 01 34:16:00
  TRACK 09 AUDIO
    TITLE "Pilgrim (Kevin Energy & K-Complex remix)"
    PERFORMER "Bass-X vs Scott Brown"
    INDEX 01 39:06:40
  TRACK 10 AUDIO
    TITLE "1937"
    PERFORMER "Xilted"
    INDEX 01 43:06:70
  TRACK 11 AUDIO
    TITLE "Chemical Love (Hardcore Breakbeat mix)"
    PERFORMER "Futureworld"
    INDEX 01 47:30:10
  TRACK 12 AUDIO
    TITLE "Beating of My Heart (remix)"
    PERFORMER "DJ Storm & Herman"
    INDEX 01 51:40:40
  TRACK 13 AUDIO
    TITLE "Distorted Visions"
    PERFORMER "DJ Dougal & Gammer"
    INDEX 01 57:28:50
  TRACK 14 AUDIO
    TITLE "Equinox"
    PERFORMER "Buzzmasta"
    INDEX 01 62:11:65
  TRACK 15 AUDIO
    TITLE "Feel it"
    PERFORMER "DJ Stompy"
    INDEX 01 67:33:72
  TRACK 16 AUDIO
    TITLE "Look at Me Now"
    PERFORMER "DJ Force & Styles ft MC Junior"
    INDEX 01 71:14:30
  TRACK 17 AUDIO
    TITLE "Hardcore Renegade"
    PERFORMER "DJ Dougal, Gammer & TKM"
    INDEX 01 75:15:00
